<svg xmlns="http://www.w3.org/2000/svg" width="31" height="35" viewBox="0 0 31 35" fill="none">
  <path d="M24.3571 13.125C28.0259 13.125 31 10.1869 31 6.5625C31 2.93813 28.0259 0 24.3571 0C20.6884 0 17.7143 2.93813 17.7143 6.5625C17.7143 7.05186 17.7685 7.5287 17.8713 7.98749L10.7805 12.3657C9.64542 11.4718 8.20729 10.9375 6.64286 10.9375C2.97411 10.9375 0 13.8756 0 17.5C0 21.1244 2.97411 24.0625 6.64286 24.0625C8.20729 24.0625 9.64542 23.5282 10.7805 22.6343L17.8713 27.0125C17.7685 27.4713 17.7143 27.9481 17.7143 28.4375C17.7143 32.0619 20.6884 35 24.3571 35C28.0259 35 31 32.0619 31 28.4375C31 24.8131 28.0259 21.875 24.3571 21.875C22.7927 21.875 21.3546 22.4093 20.2195 23.3032L13.1287 18.925C13.2315 18.4662 13.2857 17.9894 13.2857 17.5C13.2857 17.0106 13.2315 16.5338 13.1287 16.075L20.2195 11.6968C21.3546 12.5907 22.7927 13.125 24.3571 13.125Z" fill="#F7F0EA"/>
</svg>