<svg xmlns="http://www.w3.org/2000/svg" width="31" height="39" viewBox="0 0 31 39" fill="none">
    <path d="M30.7439 19.6016C30.7439 17.491 29.0334 15.7746 26.93 15.7746H25.023V10.034C25.023 4.75837 20.7457 0.466309 15.4881 0.466309C10.2306 0.466309 5.95325 4.75837 5.95325 10.034V15.7746H4.04627C1.94287 15.7746 0.232315 17.491 0.232315 19.6016V34.9099C0.232315 37.0205 1.94287 38.737 4.04627 38.737H26.93C29.0334 38.737 30.7439 37.0205 30.7439 34.9099V19.6016ZM9.7672 10.034C9.7672 6.86899 12.334 4.29338 15.4881 4.29338C18.6423 4.29338 21.2091 6.86899 21.2091 10.034V15.7746H9.7672V10.034Z" fill="#FFC700"/>
</svg>