<svg xmlns="http://www.w3.org/2000/svg" width="126" height="127" viewBox="0 0 126 127" fill="none">
    <path d="M0.964355 15C0.964355 6.71573 7.68008 0 15.9644 0H110.964C119.249 0 125.964 6.71573 125.964 15V112C125.964 120.284 119.249 127 110.964 127H15.9644C7.68009 127 0.964355 120.284 0.964355 112V15Z" fill="#FFC700"/>
    <path d="M77.7 27H67.3479C54.6069 27 46.6438 33.7737 46.6438 44.6117V58.3286H71.5286C73.161 58.3286 74.5148 59.4801 74.5148 60.8687C74.5148 62.2573 73.161 63.4089 71.5286 63.4089H46.6438V77.1257C46.6438 87.9637 54.6069 94.7375 67.3479 94.7375H77.6602C90.4012 94.7375 98.3643 87.9637 98.3643 77.1257V44.6117C98.4042 33.7737 90.441 27 77.7 27Z" fill="white"/>
    <path d="M29.1035 58.7421L37.2811 51.8214C37.8736 51.3199 38.1502 50.6846 38.1502 50.0494C38.1502 49.4142 37.8736 48.7455 37.2811 48.2774C36.7235 47.8111 35.9712 47.5496 35.1873 47.5496C34.4034 47.5496 33.6511 47.8111 33.0935 48.2774L19.8592 59.4776C18.7136 60.4472 18.7136 62.052 19.8592 63.0216L33.0935 74.2218C34.2392 75.1914 36.1354 75.1914 37.2811 74.2218C38.4267 73.2522 38.4267 71.6474 37.2811 70.6779L29.1035 63.7571H46.6438V58.7421H29.1035Z" fill="white"/>
</svg>