<svg width="220" height="192" viewBox="0 0 220 192" fill="none" xmlns="http://www.w3.org/2000/svg">
    <rect x="0.958984" width="218.304" height="192" fill="#0085FF"/>
    <mask id="mask0_278_139" style="mask-type:alpha" maskUnits="userSpaceOnUse" x="0" y="0" width="220" height="192">
        <rect x="0.958984" width="218.304" height="192" fill="#FFC700"/>
    </mask>
    <g mask="url(#mask0_278_139)">
        <path d="M10.7181 106.59C28.6666 53.2449 87.373 21.4922 141.842 35.6685L164.238 41.4972C218.707 55.6735 248.313 110.411 230.365 163.756C212.416 217.101 153.71 248.854 99.2405 234.678L76.8449 228.849C22.3755 214.673 -7.23044 159.936 10.7181 106.59Z" fill="#5AC307"/>
    </g>
    <ellipse cx="14.1186" cy="12.6772" rx="14.1186" ry="12.6772" transform="matrix(0.967991 0.250987 -0.317818 0.948152 98.8408 60)" fill="white"/>
    <ellipse cx="14.1186" cy="12.6772" rx="14.1186" ry="12.6772" transform="matrix(0.967991 0.250987 -0.317818 0.948152 169.126 78.2241)" fill="white"/>
    <path fill-rule="evenodd" clip-rule="evenodd" d="M166.12 136.997C154.085 143.715 136.563 145.53 119.083 140.7C101.604 135.869 88.4118 125.565 82.909 114C79.6063 128.906 93.4939 145.158 115.334 151.194C137.174 157.23 159.135 150.885 166.12 136.997Z" fill="white"/>
</svg>
