<svg xmlns="http://www.w3.org/2000/svg" width="111" height="74" viewBox="0 0 111 74" fill="none">
    <path d="M110.314 8.94583V57.9624C110.314 61.9612 105.959 65.6302 100.612 66.1249L98.903 66.2898C89.8627 67.1968 77.1291 70.0001 66.8761 73.2156C63.293 74.3287 59.3241 72.3087 59.3241 69.3817V12.0377C59.3241 10.5124 60.4817 9.11073 62.3008 8.36868C72.3885 4.2874 87.6577 0.6596 98.021 0H98.3517C104.967 0 110.314 3.99883 110.314 8.94583ZM48.0679 8.36868C37.9802 4.2874 22.711 0.6596 12.3477 0H11.9618C5.347 0 0 3.99883 0 8.94583V57.9624C0 61.9612 4.35477 65.6302 9.70177 66.1249L11.4106 66.2898C20.4509 67.1968 33.1845 70.0001 43.4375 73.2156C47.0205 74.3287 50.9894 72.3087 50.9894 69.3817V12.0377C50.9968 11.2849 50.7284 10.545 50.2134 9.89824C49.6984 9.25145 48.9564 8.72247 48.0679 8.36868ZM16.5922 20.8599H28.9951C30.0916 20.8599 31.1431 21.1856 31.9184 21.7655C32.6938 22.3453 33.1293 23.1317 33.1293 23.9517C33.1293 24.7718 32.6938 25.5582 31.9184 26.138C31.1431 26.7179 30.0916 27.0436 28.9951 27.0436H16.5922C15.4958 27.0436 14.4442 26.7179 13.6689 26.138C12.8935 25.5582 12.458 24.7718 12.458 23.9517C12.458 23.1317 12.8935 22.3453 13.6689 21.7655C14.4442 21.1856 15.4958 20.8599 16.5922 20.8599ZM33.1293 39.4111H16.5922C15.4958 39.4111 14.4442 39.0854 13.6689 38.5055C12.8935 37.9257 12.458 37.1393 12.458 36.3192C12.458 35.4992 12.8935 34.7128 13.6689 34.133C14.4442 33.5531 15.4958 33.2274 16.5922 33.2274H33.1293C34.2258 33.2274 35.2774 33.5531 36.0527 34.133C36.8281 34.7128 37.2636 35.4992 37.2636 36.3192C37.2636 37.1393 36.8281 37.9257 36.0527 38.5055C35.2774 39.0854 34.2258 39.4111 33.1293 39.4111Z" fill="#FFC700"/>
</svg>