<svg xmlns="http://www.w3.org/2000/svg" width="109" height="72" viewBox="0 0 109 72" fill="none">
    <path d="M56.4784 0C58.2369 0 59.6658 1.15087 59.6658 2.57155V13.3636C59.6658 15.092 61.4453 16.5254 63.5911 16.5254C65.7894 16.5254 67.5165 15.092 67.5165 13.3636V2.57155C67.5165 1.15087 68.9454 0 70.7092 0H87.7715C99.0766 0 108.236 7.37739 108.236 16.4832V27.1066C108.236 27.9498 107.817 28.7507 107.084 29.3409C106.352 29.9311 105.357 30.2684 104.31 30.2684C100.437 30.2684 97.2971 32.7978 97.2971 35.8752C97.2971 38.9737 100.401 41.4904 104.237 41.5242C106.399 41.541 108.236 42.7551 108.236 44.4962V55.3094C108.236 64.4109 99.0766 71.7926 87.7715 71.7926H70.7092C68.9454 71.7926 67.5165 70.6417 67.5165 69.221V60.1152C67.5165 58.3446 65.7894 56.9535 63.5911 56.9535C61.4453 56.9535 59.6658 58.3446 59.6658 60.1152V69.221C59.6658 70.6417 58.2369 71.7926 56.4784 71.7926H20.4643C9.21156 71.7926 0 64.4152 0 55.3094V44.4962C0 42.7551 1.83708 41.541 3.99865 41.5242C7.84029 41.4904 10.9387 38.9737 10.9387 35.8752C10.9387 32.8821 7.9031 30.6056 3.92538 30.6056C2.87861 30.6056 1.88418 30.2684 1.15144 29.6782C0.418707 29.088 0 28.287 0 27.4439V16.5254C0 7.43641 9.23249 0 20.5166 0H56.4784ZM63.5911 25.589C61.4453 25.589 59.6658 27.0223 59.6658 28.7507V45.6134C59.6658 47.3418 61.4453 48.7751 63.5911 48.7751C65.7894 48.7751 67.5165 47.3418 67.5165 45.6134V28.7507C67.5165 27.0223 65.7894 25.589 63.5911 25.589Z" fill="#FFC700"/>
</svg>