<svg width="33" height="34" viewBox="0 0 33 34" fill="none" xmlns="http://www.w3.org/2000/svg">
    <path d="M12.25 30.5C13.2165 30.5 14 29.7165 14 28.75C14 27.7835 13.2165 27 12.25 27C11.2835 27 10.5 27.7835 10.5 28.75C10.5 29.7165 11.2835 30.5 12.25 30.5Z" fill="white"/>
    <path d="M25.25 30.5C26.2165 30.5 27 29.7165 27 28.75C27 27.7835 26.2165 27 25.25 27C24.2835 27 23.5 27.7835 23.5 28.75C23.5 29.7165 24.2835 30.5 25.25 30.5Z" fill="white"/>
    <path d="M6.75 4.25H3.25V6H5.5L9.5 21.25H26.75L30.25 9.5H10.75L9.5 4.25H6.75Z" fill="white"/>
</svg>