<svg xmlns="http://www.w3.org/2000/svg" width="60" height="61" viewBox="0 0 60 61" fill="none">
    <g clip-path="url(#clip0_125_126)">
        <path d="M2.5 2.90454H12.5L19.2 36.4707C19.4286 37.6248 20.0548 38.6616 20.9689 39.3994C21.883 40.1372 23.0267 40.5292 24.2 40.5067H48.5C49.6733 40.5292 50.817 40.1372 51.7311 39.3994C52.6452 38.6616 53.2714 37.6248 53.5 36.4707L57.5 15.4386H15M25 53.0407C25 54.4252 23.8807 55.5475 22.5 55.5475C21.1193 55.5475 20 54.4252 20 53.0407C20 51.6562 21.1193 50.5339 22.5 50.5339C23.8807 50.5339 25 51.6562 25 53.0407ZM52.5 53.0407C52.5 54.4252 51.3807 55.5475 50 55.5475C48.6193 55.5475 47.5 54.4252 47.5 53.0407C47.5 51.6562 48.6193 50.5339 50 50.5339C51.3807 50.5339 52.5 51.6562 52.5 53.0407Z" stroke="#FFC700" stroke-width="4" stroke-linecap="round" stroke-linejoin="round"/>
    </g>
    <defs>
        <clipPath id="clip0_125_126">
            <rect width="60" height="60.1634" fill="white" transform="translate(0 0.397705)"/>
        </clipPath>
    </defs>
</svg>