<svg xmlns="http://www.w3.org/2000/svg" width="103" height="92" viewBox="0 0 103 92" fill="none">
    <path d="M103 11.1935V72.5258C103 77.5294 98.9339 82.1203 93.9414 82.7393L92.3459 82.9456C83.905 84.0805 72.0156 87.5881 62.4423 91.6116C59.0968 93.0043 55.3911 90.4768 55.3911 86.8144V15.0623C55.3911 13.1537 56.4719 11.3999 58.1704 10.4714C67.5892 5.36464 81.8462 0.82533 91.5224 0H91.8312C98.0075 0 103 5.00356 103 11.1935ZM44.8811 10.4714C35.4622 5.36464 21.2053 0.82533 11.5291 0H11.1688C4.9925 0 0 5.00356 0 11.1935V72.5258C0 77.5294 4.06606 82.1203 9.05857 82.7393L10.6541 82.9456C19.095 84.0805 30.9844 87.5881 40.5577 91.6116C43.9032 93.0043 47.6089 90.4768 47.6089 86.8144V15.0623C47.6158 14.1204 47.3652 13.1945 46.8843 12.3852C46.4035 11.5759 45.7107 10.9141 44.8811 10.4714ZM15.4922 26.101H27.0728C28.0965 26.101 29.0784 26.5087 29.8023 27.2342C30.5262 27.9597 30.9329 28.9437 30.9329 29.9698C30.9329 30.9958 30.5262 31.9799 29.8023 32.7054C29.0784 33.4309 28.0965 33.8385 27.0728 33.8385H15.4922C14.4684 33.8385 13.4866 33.4309 12.7626 32.7054C12.0387 31.9799 11.632 30.9958 11.632 29.9698C11.632 28.9437 12.0387 27.9597 12.7626 27.2342C13.4866 26.5087 14.4684 26.101 15.4922 26.101ZM30.9329 49.3134H15.4922C14.4684 49.3134 13.4866 48.9059 12.7626 48.1803C12.0387 47.4548 11.632 46.4708 11.632 45.4447C11.632 44.4187 12.0387 43.4346 12.7626 42.7091C13.4866 41.9836 14.4684 41.576 15.4922 41.576H30.9329C31.9567 41.576 32.9386 41.9836 33.6625 42.7091C34.3864 43.4346 34.7931 44.4187 34.7931 45.4447C34.7931 46.4708 34.3864 47.4548 33.6625 48.1803C32.9386 48.9059 31.9567 49.3134 30.9329 49.3134Z" fill="#FFC700"/>
</svg>