<svg xmlns="http://www.w3.org/2000/svg" width="91" height="72" viewBox="0 0 91 72" fill="none">
    <g filter="url(#filter0_d_134_554)">
        <rect x="9.32292" y="9.74186" width="72.3542" height="52.504" rx="14.5521" fill="white" stroke="#D9D9D9" stroke-width="2.64583"/>
        <path fill-rule="evenodd" clip-rule="evenodd" d="M25.8847 28.9464C26.8919 29.0375 27.8991 28.3997 28.5286 27.5911C29.1477 26.7597 29.5569 25.6436 29.4519 24.5046C28.5601 24.5502 27.4585 25.1424 26.8289 25.9738C26.2519 26.6913 25.7588 27.853 25.8847 28.9464ZM37.8665 43.6155V25.8599H44.0044C47.1729 25.8599 49.3868 28.2288 49.3868 31.6911C49.3868 35.1534 47.131 37.5451 43.9204 37.5451H40.4056V43.6155H37.8665ZM29.4414 29.1627C28.5541 29.1073 27.7444 29.4524 27.0904 29.7312C26.6696 29.9106 26.3132 30.0625 26.042 30.0625C25.7378 30.0625 25.3667 29.9024 24.95 29.7228C24.404 29.4873 23.7798 29.2181 23.1253 29.2311C21.6249 29.2538 20.2295 30.1764 19.4636 31.6456C17.8898 34.5839 19.0544 38.9346 20.5757 41.3263C21.3206 42.5108 22.2125 43.8091 23.3876 43.7636C23.9045 43.7424 24.2764 43.5711 24.6613 43.3938C25.1044 43.1897 25.5647 42.9777 26.2834 42.9777C26.9771 42.9777 27.4173 43.1842 27.8398 43.3824C28.2416 43.5709 28.6274 43.7519 29.2001 43.7408C30.4172 43.718 31.1831 42.5563 31.928 41.3719C32.7319 40.1006 33.0852 38.8599 33.1388 38.6716L33.1451 38.6499C33.1438 38.6485 33.1339 38.6435 33.1164 38.6348C32.8476 38.5013 30.7936 37.4805 30.7739 34.7434C30.7541 32.446 32.4031 31.2819 32.6627 31.0987C32.6785 31.0875 32.6891 31.08 32.694 31.0761C31.6448 29.3905 30.008 29.2083 29.4414 29.1627ZM54.0244 43.7523C55.6192 43.7523 57.0986 42.8753 57.7701 41.4859H57.8225V43.6156H60.1727V34.7777C60.1727 32.2151 58.2842 30.5637 55.3779 30.5637C52.6814 30.5637 50.688 32.2379 50.6145 34.5385H52.9018C53.0906 33.4451 54.0244 32.7276 55.3044 32.7276C56.8573 32.7276 57.7281 33.5135 57.7281 34.9599V35.9394L54.5595 36.1444C51.6113 36.338 50.0165 37.6477 50.0165 39.9256C50.0165 42.2262 51.6637 43.7523 54.0244 43.7523ZM54.7062 41.6453C53.3528 41.6453 52.4924 40.9392 52.4924 39.8572C52.4924 38.7411 53.3213 38.0919 54.9056 37.9894L57.7279 37.7958V38.7981C57.7279 40.4609 56.4269 41.6453 54.7062 41.6453ZM67.9682 44.3101C66.9505 47.4193 65.7859 48.4443 63.3097 48.4443C63.1209 48.4443 62.4914 48.4215 62.3445 48.376V46.2462C62.5019 46.269 62.8901 46.2918 63.0894 46.2918C64.2121 46.2918 64.8416 45.7793 65.2298 44.4467L65.4606 43.6609L61.1589 30.7342H63.8134L66.8036 41.2236H66.856L69.8463 30.7342H72.4273L67.9682 44.3101ZM40.4055 28.1834H43.3327C45.5361 28.1834 46.7951 29.4589 46.7951 31.7026C46.7951 33.9462 45.5361 35.2332 43.3222 35.2332H40.4055V28.1834Z" fill="black"/>
    </g>
    <defs>
        <filter id="filter0_d_134_554" x="0.440945" y="0.85989" width="90.1181" height="70.268" filterUnits="userSpaceOnUse" color-interpolation-filters="sRGB">
            <feFlood flood-opacity="0" result="BackgroundImageFix"/>
            <feColorMatrix in="SourceAlpha" type="matrix" values="0 0 0 0 0 0 0 0 0 0 0 0 0 0 0 0 0 0 127 0" result="hardAlpha"/>
            <feOffset/>
            <feGaussianBlur stdDeviation="3.77953"/>
            <feComposite in2="hardAlpha" operator="out"/>
            <feColorMatrix type="matrix" values="0 0 0 0 0 0 0 0 0 0 0 0 0 0 0 0 0 0 0.07 0"/>
            <feBlend mode="normal" in2="BackgroundImageFix" result="effect1_dropShadow_134_554"/>
            <feBlend mode="normal" in="SourceGraphic" in2="effect1_dropShadow_134_554" result="shape"/>
        </filter>
    </defs>
</svg>