<svg width="115" height="96" viewBox="0 0 115 96" fill="none" xmlns="http://www.w3.org/2000/svg">
    <g filter="url(#filter0_d_134_429)">
        <rect x="21.3229" y="21.7419" width="72.3542" height="52.504" rx="14.5521" fill="white" stroke="#D9D9D9" stroke-width="2.64583"/>
        <path fill-rule="evenodd" clip-rule="evenodd" d="M41.2142 55.4414H37.8808C37.6526 55.4414 37.4586 55.6192 37.4231 55.8606L36.0748 65.0271C36.048 65.208 36.1787 65.3711 36.3498 65.3711H37.9412C38.1693 65.3711 38.3633 65.1933 38.3989 64.9514L38.7625 62.4791C38.7976 62.2369 38.9921 62.0594 39.2197 62.0594H40.275C42.4708 62.0594 43.7381 60.9199 44.0692 58.6619C44.2183 57.674 44.0755 56.8978 43.644 56.354C43.1703 55.7573 42.3299 55.4414 41.2142 55.4414ZM41.5988 58.7893C41.4166 60.0721 40.5026 60.0721 39.6189 60.0721H39.1159L39.4688 57.6764C39.4897 57.5318 39.6067 57.4251 39.7432 57.4251H39.9738C40.5757 57.4251 41.1436 57.4251 41.4371 57.793C41.6119 58.0126 41.6656 58.3387 41.5988 58.7893ZM51.1788 58.7482H49.5824C49.4464 58.7482 49.3289 58.8549 49.3079 58.9998L49.2373 59.4785L49.1257 59.305C48.7801 58.7671 48.0096 58.5874 47.2404 58.5874C45.4763 58.5874 43.9697 60.0201 43.6763 62.0299C43.5238 63.0323 43.7405 63.9909 44.2708 64.6594C44.7574 65.2741 45.4535 65.5302 46.2815 65.5302C47.7028 65.5302 48.4912 64.5501 48.4912 64.5501L48.4199 65.0259C48.393 65.2078 48.5236 65.3708 48.6937 65.3708H50.1317C50.3604 65.3708 50.5533 65.193 50.5894 64.9511L51.4521 59.0922C51.4794 58.912 51.3493 58.7482 51.1788 58.7482ZM48.9536 62.08C48.7995 63.0579 48.0757 63.7144 47.1527 63.7144C46.6891 63.7144 46.3185 63.555 46.0808 63.2529C45.8448 62.9529 45.7551 62.5258 45.8302 62.0502C45.9741 61.0805 46.7101 60.4027 47.6191 60.4027C48.0723 60.4027 48.4409 60.5641 48.6836 60.8688C48.9267 61.1768 49.0233 61.6063 48.9536 62.08ZM58.0763 58.748H59.6805C59.9052 58.748 60.0362 59.0182 59.9086 59.2158L54.5733 67.4742C54.4869 67.608 54.3446 67.6876 54.1925 67.6876H52.5903C52.3648 67.6876 52.233 67.4152 52.3636 67.2171L54.0249 64.7025L52.2581 59.142C52.197 58.9487 52.33 58.748 52.5218 58.748H54.098C54.3028 58.748 54.4835 58.8921 54.5426 59.1023L55.4803 62.4607L57.6928 58.9659C57.7795 58.8295 57.9234 58.748 58.0763 58.748Z" fill="#253B80"/>
        <path fill-rule="evenodd" clip-rule="evenodd" d="M75.4687 65.0268L76.8368 55.6927C76.8578 55.5478 76.9748 55.4412 77.1109 55.4407H78.651C78.8211 55.4407 78.9517 55.6042 78.9248 55.7851L77.5757 64.9511C77.5406 65.193 77.3466 65.3708 77.1181 65.3708H75.7426C75.5725 65.3708 75.4419 65.2078 75.4687 65.0268ZM64.9915 55.4412H61.6574C61.4298 55.4412 61.2359 55.6189 61.2002 55.8603L59.852 65.0268C59.8252 65.2078 59.9558 65.3708 60.1261 65.3708H61.8368C61.9958 65.3708 62.1318 65.2465 62.1566 65.0772L62.5392 62.4788C62.5744 62.2367 62.7688 62.0591 62.9964 62.0591H64.0511C66.2474 62.0591 67.5144 60.9196 67.8458 58.6616C67.9953 57.6738 67.8517 56.8976 67.4204 56.3538C66.9469 55.7571 66.1071 55.4412 64.9915 55.4412ZM65.3761 58.7891C65.1943 60.0718 64.2803 60.0718 63.3961 60.0718H62.8935L63.247 57.6762C63.268 57.5315 63.3839 57.4249 63.5208 57.4249H63.7513C64.3529 57.4249 64.9214 57.4249 65.2146 57.7928C65.3896 58.0124 65.4429 58.3385 65.3761 58.7891ZM74.9551 58.748H73.3599C73.2228 58.748 73.1064 58.8546 73.0859 58.9995L73.0153 59.4782L72.9032 59.3048C72.5576 58.7668 71.7875 58.5871 71.0184 58.5871C69.2542 58.5871 67.7481 60.0198 67.4547 62.0296C67.3026 63.032 67.5185 63.9906 68.0488 64.6592C68.5363 65.2738 69.2314 65.53 70.0595 65.53C71.4808 65.53 72.2689 64.5498 72.2689 64.5498L72.1978 65.0256C72.171 65.2075 72.3016 65.3706 72.4728 65.3706H73.9101C74.1377 65.3706 74.3317 65.1928 74.3673 64.9509L75.2305 59.0919C75.2569 58.9117 75.1263 58.748 74.9551 58.748ZM72.7302 62.0797C72.577 63.0577 71.8523 63.7141 70.929 63.7141C70.4664 63.7141 70.0951 63.5547 69.8572 63.2526C69.6212 62.9527 69.5326 62.5255 69.6068 62.05C69.7514 61.0802 70.4865 60.4025 71.3955 60.4025C71.8489 60.4025 72.2172 60.5638 72.4602 60.8686C72.7042 61.1765 72.8008 61.6061 72.7302 62.0797Z" fill="#179BD7"/>
        <path d="M53.5505 52.1618L53.9604 49.3704L53.0475 49.3477H48.6885L51.7178 28.7496C51.7271 28.6874 51.7577 28.6294 51.8024 28.5883C51.8471 28.5471 51.9043 28.5244 51.9639 28.5244H59.3139C61.7541 28.5244 63.4379 29.0689 64.3172 30.1436C64.7293 30.6478 64.9918 31.1747 65.1188 31.7545C65.2519 32.3629 65.2544 33.0897 65.1242 33.9762L65.1148 34.0409V34.6089L65.5271 34.8594C65.8742 35.0568 66.1499 35.2829 66.3615 35.5417C66.7142 35.9727 66.9423 36.5206 67.0386 37.1702C67.1381 37.8382 67.1051 38.6331 66.9423 39.5331C66.7542 40.5683 66.4501 41.4699 66.0396 42.2077C65.6618 42.8875 65.1806 43.4512 64.6095 43.8883C64.0641 44.3034 63.416 44.6186 62.6834 44.8203C61.9733 45.0184 61.164 45.1185 60.2762 45.1185H59.7041C59.2952 45.1185 58.8978 45.2765 58.586 45.5597C58.2734 45.8488 58.0663 46.2435 58.0029 46.6756L57.9599 46.9269L57.2358 51.8466L57.2029 52.0273C57.1943 52.0846 57.1794 52.1131 57.1575 52.1325C57.1379 52.1499 57.1097 52.1618 57.0822 52.1618H53.5505Z" fill="#253B80"/>
        <path d="M65.9175 34.1067C65.8956 34.2571 65.8706 34.4109 65.8424 34.5688C64.8729 39.9055 61.5569 41.7491 57.3214 41.7491H55.165C54.6472 41.7491 54.2107 42.1525 54.1299 42.7003L53.0258 50.2093L52.7132 52.3376C52.6606 52.6973 52.9193 53.0217 53.2577 53.0217H57.0826C57.5355 53.0217 57.9201 52.6687 57.9914 52.1898L58.029 51.9813L58.7493 47.0807L58.7955 46.812C58.8659 46.3313 59.2514 45.9784 59.7043 45.9784H60.2763C63.9819 45.9784 66.8829 44.3651 67.7308 39.6963C68.0849 37.746 67.9015 36.1175 66.9643 34.9722C66.6808 34.6268 66.3289 34.3403 65.9175 34.1067Z" fill="#179BD7"/>
        <path d="M64.903 33.6736C64.7551 33.6274 64.6021 33.5854 64.4454 33.5476C64.2879 33.5106 64.1264 33.4778 63.9604 33.4493C63.3789 33.3484 62.7419 33.3005 62.0593 33.3005H56.2984C56.1565 33.3005 56.0219 33.335 55.9012 33.3972C55.6355 33.5341 55.4381 33.8039 55.3903 34.1341L54.1646 42.458L54.1294 42.7009C54.2101 42.153 54.6466 41.7496 55.1645 41.7496H57.3209C61.5563 41.7496 64.8726 39.9052 65.8418 34.5694C65.8707 34.4114 65.8951 34.2576 65.9169 34.1072C65.6718 33.9677 65.406 33.8484 65.12 33.7467C65.0496 33.7215 64.9768 33.6972 64.903 33.6736Z" fill="#222D65"/>
        <path d="M55.3905 34.134C55.4384 33.8037 55.636 33.534 55.9014 33.3978C56.023 33.3357 56.157 33.3012 56.2987 33.3012H62.0598C62.7424 33.3012 63.3794 33.3491 63.9606 33.4499C64.1269 33.4785 64.2884 33.5113 64.4458 33.5482C64.6026 33.5861 64.7553 33.6281 64.9035 33.6743C64.977 33.6978 65.0499 33.7222 65.1212 33.7466C65.4072 33.8482 65.6729 33.9684 65.9181 34.1071C66.2066 32.1349 65.9158 30.7921 64.9215 29.5762C63.8253 28.2376 61.8466 27.6646 59.3149 27.6646H51.9647C51.4474 27.6646 51.0065 28.0679 50.9264 28.6166L47.865 49.4264C47.8046 49.8381 48.1007 50.2096 48.4878 50.2096H53.0257L54.165 42.4579L55.3905 34.134Z" fill="#253B80"/>
    </g>
    <defs>
        <filter id="filter0_d_134_429" x="0" y="0.418945" width="115" height="95.1499" filterUnits="userSpaceOnUse" color-interpolation-filters="sRGB">
            <feFlood flood-opacity="0" result="BackgroundImageFix"/>
            <feColorMatrix in="SourceAlpha" type="matrix" values="0 0 0 0 0 0 0 0 0 0 0 0 0 0 0 0 0 0 127 0" result="hardAlpha"/>
            <feOffset/>
            <feGaussianBlur stdDeviation="10"/>
            <feComposite in2="hardAlpha" operator="out"/>
            <feColorMatrix type="matrix" values="0 0 0 0 0 0 0 0 0 0 0 0 0 0 0 0 0 0 0.07 0"/>
            <feBlend mode="normal" in2="BackgroundImageFix" result="effect1_dropShadow_134_429"/>
            <feBlend mode="normal" in="SourceGraphic" in2="effect1_dropShadow_134_429" result="shape"/>
        </filter>
    </defs>
</svg>
