<svg xmlns="http://www.w3.org/2000/svg" width="18" height="13" viewBox="0 0 18 13" fill="none">
    <path d="M8.57296 12.2402C12.7964 12.2402 16.2201 9.65655 16.2201 6.46946C16.2201 3.28238 12.7964 0.69873 8.57296 0.69873C4.34954 0.69873 0.925781 3.28238 0.925781 6.46946C0.925781 9.65655 4.34954 12.2402 8.57296 12.2402Z" fill="#0D0D0D"/>
    <path fill-rule="evenodd" clip-rule="evenodd" d="M8.5729 1.39713C4.86074 1.39713 1.85143 3.66802 1.85143 6.4693C1.85143 9.27058 4.86074 11.5415 8.5729 11.5415C12.2851 11.5415 15.2944 9.27058 15.2944 6.4693C15.2944 3.66802 12.2851 1.39713 8.5729 1.39713ZM0 6.4693C0 2.8964 3.83822 0 8.5729 0C13.3076 0 17.1458 2.8964 17.1458 6.4693C17.1458 10.0422 13.3076 12.9386 8.5729 12.9386C3.83822 12.9386 0 10.0422 0 6.4693Z" fill="#FFC700"/>
    <path d="M3.57283 8.68898C4.11887 8.68898 4.64255 8.52529 5.02866 8.23392C5.41477 7.94255 5.63168 7.54737 5.63168 7.13532V5.80361C5.63168 5.39155 5.8486 4.99637 6.23471 4.705C6.62082 4.41364 7.1445 4.24995 7.69054 4.24995C8.23658 4.24995 8.76026 4.08626 9.14637 3.79489C9.53248 3.50353 9.7494 3.10835 9.7494 2.69629V0.766595C9.36592 0.721913 8.97303 0.69873 8.57296 0.69873C4.34954 0.69873 0.925781 3.28238 0.925781 6.46946C0.925781 7.25597 1.13429 8.00573 1.51186 8.68898H3.57283Z" fill="#1A1A1D"/>
    <path fill-rule="evenodd" clip-rule="evenodd" d="M0 6.4693C0 2.8964 3.83822 0 8.5729 0C9.02042 0 9.46054 0.0259367 9.8906 0.0760457C10.342 0.128638 10.6751 0.421783 10.6751 0.766431V2.69613C10.6751 3.29345 10.3606 3.86632 9.80089 4.28869C9.24117 4.71106 8.48204 4.94835 7.69048 4.94835C7.38995 4.94835 7.10173 5.03844 6.88923 5.1988C6.67672 5.35916 6.55734 5.57666 6.55734 5.80344V7.13515C6.55734 7.73248 6.24289 8.30534 5.68318 8.72772C5.12346 9.15009 4.36432 9.38738 3.57276 9.38738H1.5118C1.13819 9.38738 0.801199 9.2179 0.657399 8.95768C0.23358 8.19076 0 7.34973 0 6.4693ZM8.5729 1.39713C4.86074 1.39713 1.85143 3.66802 1.85143 6.4693C1.85143 7.00003 1.95915 7.51073 2.15859 7.99024H3.57276C3.87329 7.99024 4.16151 7.90015 4.37401 7.73979C4.58652 7.57943 4.7059 7.36194 4.7059 7.13515V5.80344C4.7059 5.20612 5.02035 4.63325 5.58006 4.21088C6.13978 3.78851 6.89892 3.55122 7.69048 3.55122C7.991 3.55122 8.27922 3.46113 8.49173 3.30077C8.70423 3.14041 8.82362 2.92291 8.82362 2.69613V1.40059C8.74045 1.39829 8.65687 1.39713 8.5729 1.39713Z" fill="#FFC700"/>
    <path d="M16.2192 6.38022C15.6304 6.14976 14.9774 6.02815 14.314 6.02539H11.8081C11.2621 6.02539 10.7384 6.18908 10.3523 6.48045C9.96618 6.77181 9.74927 7.16699 9.74927 7.57905C9.74927 7.99111 9.96618 8.38629 10.3523 8.67765C10.7384 8.96902 11.2621 9.13271 11.8081 9.13271C12.1982 9.13271 12.5722 9.24963 12.848 9.45775C13.1238 9.66587 13.2787 9.94814 13.2787 10.2425V11.0149H13.2846C15.0606 9.96508 16.2058 8.33548 16.22 6.50362V6.43497C16.2198 6.4167 16.2196 6.39845 16.2192 6.38022Z" fill="#1A1A1D"/>
    <path fill-rule="evenodd" clip-rule="evenodd" d="M11.8081 6.72379C11.5075 6.72379 11.2193 6.81388 11.0068 6.97424C10.7943 7.1346 10.6749 7.3521 10.6749 7.57889C10.6749 7.80567 10.7943 8.02317 11.0068 8.18353C11.2193 8.34389 11.5075 8.43398 11.8081 8.43398C12.4436 8.43398 13.0531 8.6245 13.5025 8.96362C13.7031 9.11501 13.8645 9.29048 13.9817 9.48102C14.7161 8.73133 15.1828 7.82405 15.2768 6.83883C14.9654 6.76436 14.64 6.72534 14.3113 6.72379H11.8081ZM9.69765 5.98632C10.2574 5.56395 11.0165 5.32666 11.8081 5.32666H14.3191C15.129 5.33003 15.9263 5.47853 16.6453 5.75992C16.9478 5.87828 17.1396 6.11243 17.1447 6.36948C17.1452 6.38989 17.1454 6.4103 17.1456 6.43073L17.1456 6.4348L17.1456 6.50752C17.1298 8.56163 15.8444 10.3889 13.8554 11.5646C13.6925 11.6609 13.4915 11.7133 13.2846 11.7133H13.2787C12.7674 11.7133 12.353 11.4005 12.353 11.0147V10.2423C12.353 10.1332 12.2955 10.0287 12.1934 9.95155C12.0912 9.87443 11.9526 9.83111 11.8081 9.83111C11.0165 9.83111 10.2574 9.59382 9.69765 9.17145C9.13793 8.74907 8.82349 8.17621 8.82349 7.57889C8.82349 6.98156 9.13793 6.4087 9.69765 5.98632Z" fill="#FFC700"/>
</svg>